<svg width="157" height="24" viewBox="0 0 157 24" fill="none" xmlns="http://www.w3.org/2000/svg">
<path d="M7.84615e-06 23.0906L4.65923 1.02779H20.6924L19.8017 5.2759H9.28419L8.29068 9.90087H17.5406L16.6499 14.2175H7.39995L5.5157 23.0906H7.84615e-06ZM24.6416 23.4332C22.4033 23.4332 20.7703 22.7822 19.7426 21.4804C18.7148 20.1786 18.475 18.2258 19.0231 15.6221C19.4114 13.8178 20.0395 12.2419 20.9074 10.8944C21.7753 9.52402 22.883 8.45057 24.2305 7.67403C25.6008 6.89749 27.1882 6.50923 28.9925 6.50923C29.9289 6.50923 30.6826 6.62342 31.2536 6.85181C31.8246 7.05737 32.3613 7.3657 32.8637 7.77681L33.035 6.85181H38.5507L35.1248 23.0906H30.3628L30.3286 21.7202C28.7298 22.8622 26.8342 23.4332 24.6416 23.4332ZM27.2795 19.4249C28.49 19.4249 29.6091 19.0138 30.6369 18.1915L32.0073 11.6823C31.5505 10.9286 30.7397 10.5518 29.5749 10.5518C28.273 10.5518 27.2224 10.9629 26.4231 11.7851C25.6237 12.5845 25.0299 13.8635 24.6416 15.6221C24.3447 17.061 24.3904 18.0545 24.7786 18.6026C25.1897 19.1508 26.0234 19.4249 27.2795 19.4249ZM47.0695 23.4332C45.3337 23.4332 43.8263 23.1248 42.5473 22.5082C41.2911 21.8687 40.3889 20.9208 39.8408 19.6647C39.3155 18.4085 39.247 16.844 39.6352 14.9712C40.2291 12.1163 41.4624 9.99222 43.3352 8.59902C45.208 7.20582 47.6861 6.50923 50.7694 6.50923C51.9571 6.50923 52.9734 6.60058 53.8185 6.7833C54.6635 6.94317 55.4629 7.21724 56.2166 7.60551L55.3601 11.511C54.241 10.8944 52.8135 10.586 51.0778 10.586C49.479 10.586 48.1886 10.9058 47.2065 11.5453C46.2472 12.1848 45.5963 13.3268 45.2537 14.9712C44.934 16.5014 45.0368 17.6206 45.5621 18.3286C46.1102 19.0138 47.3207 19.3563 49.1935 19.3563C50.8608 19.3563 52.4481 19.0138 53.9555 18.3286L53.099 22.4054C52.1855 22.7708 51.2376 23.0335 50.2555 23.1934C49.2734 23.3532 48.2114 23.4332 47.0695 23.4332ZM64.3694 23.4332C62.6565 23.4332 61.1491 23.1248 59.8472 22.5082C58.5682 21.8687 57.6433 20.9208 57.0723 19.6647C56.5013 18.4085 56.4099 16.844 56.7982 14.9712C57.3463 12.3904 58.4312 10.3348 60.0528 8.80458C61.6744 7.27434 64.0154 6.50923 67.0759 6.50923C68.7203 6.50923 70.0793 6.8404 71.1527 7.50274C72.249 8.14224 73.0141 9.01013 73.4481 10.1064C73.882 11.2027 73.9505 12.4474 73.6536 13.8406L73.037 16.7527H61.5259C61.5488 17.8261 61.9256 18.5798 62.6565 19.0138C63.3873 19.4249 64.6549 19.6304 66.4592 19.6304C67.35 19.6304 68.275 19.5505 69.2342 19.3906C70.1935 19.2307 71.0043 19.0252 71.6666 18.7739L70.9129 22.3711C70.0678 22.7366 69.0858 22.9992 67.9666 23.1591C66.8475 23.3418 65.6484 23.4332 64.3694 23.4332ZM62.2111 13.5666H68.9259L69.0629 12.8471C69.2456 12.0478 69.1429 11.4197 68.7546 10.9629C68.3663 10.4833 67.6012 10.2435 66.4592 10.2435C65.1346 10.2435 64.1525 10.5175 63.513 11.0657C62.8963 11.591 62.4624 12.4246 62.2111 13.5666ZM84.578 23.4332C83.4817 23.4332 82.5567 23.2961 81.803 23.0221C81.0493 22.7251 80.3984 22.2912 79.8502 21.7202L79.3021 23.0906H74.5058L79.4048 1.77968e-05H84.9205L83.3104 7.60551C83.9956 7.24008 84.7378 6.96601 85.5372 6.7833C86.3594 6.60058 87.1816 6.50923 88.0039 6.50923C89.4884 6.50923 90.7446 6.81756 91.7723 7.43422C92.8001 8.02804 93.5081 8.94161 93.8964 10.1749C94.3075 11.4083 94.3189 12.9613 93.9307 14.8342C93.314 17.7576 92.2405 19.9273 90.7103 21.3434C89.1801 22.7366 87.136 23.4332 84.578 23.4332ZM83.8585 19.4249C85.0918 19.4249 86.0511 19.0594 86.7363 18.3286C87.4443 17.5749 87.9696 16.4215 88.3122 14.8684C88.6319 13.2697 88.5977 12.1505 88.2094 11.511C87.844 10.8715 87.0218 10.5518 85.7428 10.5518C84.4409 10.5518 83.3446 10.8944 82.4539 11.5796L81.0493 18.1915C81.3462 18.6026 81.7345 18.911 82.2141 19.1165C82.7165 19.3221 83.2647 19.4249 83.8585 19.4249ZM103.34 23.4332C100.417 23.4332 98.3155 22.7137 97.0364 21.2748C95.7803 19.8131 95.4377 17.7119 96.0087 14.9712C96.5797 12.2533 97.7216 10.1635 99.4346 8.7018C101.148 7.24008 103.648 6.50923 106.937 6.50923C109.929 6.50923 112.053 7.24008 113.309 8.7018C114.566 10.1635 114.908 12.2533 114.337 14.9712C113.766 17.7119 112.624 19.8131 110.911 21.2748C109.198 22.7137 106.675 23.4332 103.34 23.4332ZM104.265 19.1165C105.544 19.1165 106.526 18.7968 107.211 18.1573C107.897 17.5178 108.399 16.4558 108.719 14.9712C109.039 13.4866 108.993 12.4246 108.582 11.7851C108.171 11.1456 107.326 10.8259 106.047 10.8259C104.79 10.8259 103.82 11.1456 103.135 11.7851C102.449 12.4246 101.947 13.4866 101.627 14.9712C101.307 16.4558 101.353 17.5178 101.764 18.1573C102.175 18.7968 103.009 19.1165 104.265 19.1165ZM123.782 23.4332C120.858 23.4332 118.757 22.7137 117.478 21.2748C116.222 19.8131 115.879 17.7119 116.45 14.9712C117.021 12.2533 118.163 10.1635 119.876 8.7018C121.589 7.24008 124.09 6.50923 127.379 6.50923C130.371 6.50923 132.495 7.24008 133.751 8.7018C135.007 10.1635 135.35 12.2533 134.779 14.9712C134.208 17.7119 133.066 19.8131 131.353 21.2748C129.64 22.7137 127.116 23.4332 123.782 23.4332ZM124.707 19.1165C125.986 19.1165 126.968 18.7968 127.653 18.1573C128.338 17.5178 128.841 16.4558 129.16 14.9712C129.48 13.4866 129.434 12.4246 129.023 11.7851C128.612 11.1456 127.767 10.8259 126.488 10.8259C125.232 10.8259 124.261 11.1456 123.576 11.7851C122.891 12.4246 122.389 13.4866 122.069 14.9712C121.749 16.4558 121.795 17.5178 122.206 18.1573C122.617 18.7968 123.451 19.1165 124.707 19.1165ZM135.864 23.0906L140.763 1.77968e-05H146.279L143.71 12.0592L150.116 6.85181H156.385L148.437 13.6008L153.336 23.0906H147.478L144.36 16.5129L142.442 18.0888L141.38 23.0906H135.864Z" fill="#CECFD1"/>
</svg>
