<svg width="44" height="44" viewBox="0 0 44 44" fill="none" xmlns="http://www.w3.org/2000/svg">
<rect width="44" height="44" rx="22" fill="#DA4916"/>
<path d="M35.5362 14.2352C34.5397 14.6881 33.4656 14.9858 32.3527 15.1281C33.4915 14.4423 34.3715 13.3552 34.7856 12.0481C33.7115 12.6952 32.5209 13.1481 31.2656 13.407C30.2432 12.294 28.8068 11.647 27.1762 11.647C24.135 11.647 21.6503 14.1317 21.6503 17.1987C21.6503 17.6387 21.7021 18.0658 21.7927 18.467C17.1856 18.234 13.0832 16.0211 10.3527 12.6693C9.87383 13.4846 9.60207 14.4423 9.60207 15.4517C9.60207 17.3799 10.5727 19.0881 12.0738 20.0587C11.155 20.0587 10.3009 19.7999 9.5503 19.4117V19.4505C9.5503 22.1423 11.4656 24.394 14.0021 24.8987C13.1877 25.1216 12.3328 25.1526 11.5044 24.9893C11.8559 26.0925 12.5443 27.0579 13.4728 27.7496C14.4013 28.4413 15.5232 28.8247 16.6809 28.8458C14.7185 30.3993 12.2861 31.239 9.78324 31.227C9.34324 31.227 8.90324 31.2011 8.46324 31.1493C10.9221 32.7281 13.8468 33.647 16.9785 33.647C27.1762 33.647 32.7797 25.1834 32.7797 17.8458C32.7797 17.5999 32.7797 17.367 32.7668 17.1211C33.8538 16.3446 34.7856 15.3611 35.5362 14.2352Z" fill="#030110"/>
</svg>
