<svg width="44" height="44" viewBox="0 0 44 44" fill="none" xmlns="http://www.w3.org/2000/svg">
<rect width="44" height="44" rx="22" fill="#DA4916"/>
<path d="M15.882 11.2374C13.5971 11.5356 11.7317 13.3049 11.2768 15.605C11.1706 16.1308 11.1706 27.8688 11.2768 28.3945C11.5649 29.8403 12.4142 31.1092 13.6224 31.9129C14.138 32.2516 14.6334 32.469 15.3209 32.6611L15.8062 32.7925H21.9482C28.7777 32.7925 28.353 32.8127 29.3287 32.4488C30.7441 31.9129 31.9119 30.7452 32.4477 29.3297C32.8117 28.3592 32.7915 28.7737 32.7915 21.9998C32.7915 15.2259 32.8117 15.6404 32.4477 14.6698C31.9119 13.2493 30.7492 12.0866 29.3287 11.5508C28.3682 11.1919 28.8383 11.2172 22.2009 11.202C18.905 11.1969 16.064 11.2121 15.882 11.2374ZM28.0447 15.2006C28.9243 15.4635 29.081 16.5706 28.3076 17.0811C28.0447 17.2581 27.5948 17.2783 27.2864 17.1266C27.0589 17.0104 26.8213 16.707 26.7455 16.424C26.5939 15.8527 27.0994 15.1905 27.7414 15.1298C27.7717 15.1248 27.9082 15.1602 28.0447 15.2006ZM23.3232 16.8081C24.2584 17.0558 25.0167 17.4855 25.7244 18.173C26.4473 18.8757 26.9326 19.6997 27.1904 20.6753C27.3117 21.1101 27.3269 21.2617 27.3269 21.9998C27.3269 22.7378 27.3117 22.8895 27.1904 23.3242C26.9224 24.3302 26.4978 25.048 25.7193 25.8164C24.6325 26.8881 23.3232 27.3987 21.8218 27.3431C20.3811 27.2875 19.1678 26.7516 18.172 25.7254C17.4895 25.0177 17.0599 24.2695 16.802 23.3242C16.6858 22.8895 16.6706 22.7429 16.6706 21.9998C16.6706 21.2567 16.6858 21.1101 16.802 20.6753C17.07 19.6997 17.5502 18.8706 18.2731 18.173C19.0667 17.4047 19.8604 16.98 20.9624 16.7424C21.6145 16.6009 22.6407 16.6312 23.3232 16.8081Z" fill="#030110"/>
<path d="M21.1141 18.8544C19.9817 19.1931 19.1325 20.0626 18.8443 21.1747C18.7382 21.5791 18.7382 22.4183 18.8443 22.8278C19.1325 23.9399 20.098 24.9004 21.195 25.1582C21.6095 25.2542 22.388 25.2542 22.7974 25.1582C23.9197 24.8953 24.8599 23.9601 25.1531 22.8227C25.2593 22.4183 25.2593 21.5791 25.1531 21.1697C25.0419 20.745 24.7234 20.1485 24.4252 19.8098C24.1017 19.4509 23.5608 19.092 23.0957 18.9252C22.6104 18.7483 21.5893 18.7129 21.1141 18.8544Z" fill="#030110"/>
</svg>
