<svg width="44" height="44" viewBox="0 0 44 44" fill="none" xmlns="http://www.w3.org/2000/svg">
<rect width="44" height="44" rx="22" fill="#DA4916"/>
<path d="M15.8109 13.516C17.3666 13.3701 19.3676 13.3701 21.9544 13.3701H22.0457C24.6313 13.3701 26.6323 13.3701 28.188 13.516C29.7547 13.6641 30.9908 13.9681 31.984 14.6629C33.0174 15.3867 33.5174 16.3455 33.7512 17.5659C33.9706 18.7062 33.9706 20.1505 33.9706 21.9166V22.0836C33.9706 23.8497 33.9706 25.2939 33.7512 26.4342C33.5174 27.6546 33.0174 28.6134 31.984 29.3372C30.9908 30.0321 29.7547 30.3361 28.1869 30.4842C26.6323 30.63 24.6313 30.63 22.0457 30.63H21.9544C19.3687 30.63 17.3677 30.63 15.812 30.4842C14.2453 30.3361 13.0093 30.0321 12.016 29.3372C10.9826 28.6134 10.4826 27.6546 10.2488 26.4342C10.0294 25.2939 10.0294 23.8497 10.0294 22.0836V21.9166C10.0294 20.1505 10.0294 18.7062 10.2488 17.5659C10.4826 16.3455 10.9826 15.3867 12.016 14.6629C13.0093 13.9681 14.2453 13.6641 15.8132 13.516M21.5089 18.5982C21.2246 18.4092 20.8773 18.3398 20.5421 18.405C20.207 18.4703 19.911 18.6649 19.7184 18.9467C19.5736 19.1594 19.4956 19.4122 19.4956 19.6705V24.3296C19.4955 24.5631 19.5587 24.7922 19.6784 24.9926C19.7982 25.193 19.97 25.3573 20.1756 25.4678C20.3812 25.5784 20.6129 25.6312 20.8461 25.6206C21.0793 25.61 21.3053 25.5363 21.5 25.4075L25.0355 23.098C25.2143 22.9817 25.3613 22.8228 25.4634 22.6355C25.5655 22.4483 25.6194 22.2386 25.6203 22.0253C25.6211 21.812 25.569 21.6019 25.4685 21.4138C25.3679 21.2257 25.2222 21.0656 25.0444 20.9478L21.5089 18.5982Z" fill="#030110"/>
</svg>
