<svg width="150" height="44" viewBox="0 0 150 44" fill="none" xmlns="http://www.w3.org/2000/svg">
<path d="M1.29006 0.0899086C1.04143 0.238636 0.77504 1.35409 0.650724 2.7763C0.624085 3.05516 0.553048 3.8081 0.49089 4.44949C0.419852 5.16523 0.375454 7.0801 0.375454 9.46904C0.375454 12.9084 0.402093 13.5219 0.579687 15.1393C0.863837 17.6119 1.14799 18.9876 1.76069 20.9025C2.21355 22.3154 2.28459 22.6128 2.28459 23.2263C2.28459 23.8119 2.24019 24.0164 2.0182 24.5184C1.67189 25.2713 1.24566 25.8941 0.526409 26.6842C0.162341 27.0839 -0.024133 27.3628 0.00250616 27.4465C0.0291453 27.5208 0.206739 27.6696 0.393213 27.7718C0.579687 27.8648 0.988153 28.1901 1.30782 28.4876C2.31123 29.4264 3.066 29.8633 6.76884 31.6759C9.57483 33.0516 12.7715 35.6544 13.9792 37.5599C14.2278 37.9503 14.5741 38.6847 14.7606 39.1866C15.32 40.7576 15.4532 40.9993 16.0037 41.5849C16.5809 42.1798 17.6376 42.8677 18.4368 43.1465C19.1383 43.3975 19.6444 43.3138 20.6301 42.7933C22.0064 42.0682 22.8322 41.2316 23.2052 40.172C23.7468 38.6196 23.9244 38.2013 24.3329 37.5599C24.9278 36.6304 26.2953 35.2175 27.6539 34.1578C29.3233 32.8378 29.7673 32.5776 33.8963 30.5047C35.4592 29.7146 36.2583 29.1847 37.1818 28.3388C37.5015 28.0414 37.8922 27.7346 38.052 27.651C38.203 27.5673 38.3362 27.4465 38.3362 27.3814C38.3362 27.3163 38.132 27.0561 37.8833 26.8051C37.2529 26.1544 36.6046 25.2156 36.285 24.4812C35.8587 23.4959 35.8943 22.901 36.507 21.0419C37.2262 18.8482 37.5459 17.2215 37.8212 14.3492C37.9721 12.7225 37.9721 6.03901 37.8212 4.40301C37.4305 0.294411 37.2262 -0.328384 36.4182 0.12709C36.2495 0.220047 35.2816 1.26114 34.2782 2.44166C31.9606 5.15594 29.1634 8.09331 27.5029 9.5341C26.7926 10.1476 25.9756 10.9098 25.6915 11.2352L25.1676 11.8115L23.9155 11.6535C21.3671 11.3281 16.9716 11.3281 14.3965 11.6535L13.1445 11.8115L12.6206 11.2352C12.3364 10.9098 11.5195 10.1476 10.8091 9.5341C9.02428 7.98176 6.82212 5.68578 4.32692 2.7763C1.95604 0.0248413 1.72517 -0.179657 1.29006 0.0899086ZM3.35903 5.81592C5.80095 8.9206 7.01747 12.267 7.03523 15.9294C7.03523 17.2586 6.83988 19.1549 6.71556 18.9318C6.68004 18.8575 6.44029 17.9372 6.19166 16.8961C5.91639 15.7435 5.15273 13.1593 4.247 10.3056C2.79961 5.76014 2.57762 5.00721 2.6753 5.00721C2.69306 5.00721 3.00385 5.36974 3.35903 5.81592ZM35.619 5.30467C35.5924 5.47198 34.8909 7.73079 34.065 10.3149C33.1238 13.2616 32.4134 15.6691 32.1648 16.7567C31.9428 17.7234 31.703 18.6437 31.6409 18.8017C31.5343 19.0805 31.5254 19.0527 31.4011 18.1138C30.9128 14.3213 31.7652 10.5938 33.8608 7.35897C34.4202 6.49449 35.548 5.00721 35.6456 5.00721C35.6634 5.00721 35.6545 5.14664 35.619 5.30467ZM8.18959 25.6432C12.0789 25.8477 13.2244 26.5076 14.6895 29.3706C15.0358 30.0585 15.4088 30.8672 15.5065 31.1832C15.6663 31.6852 15.8972 33.1725 15.835 33.2468C15.8173 33.2561 15.613 32.9029 15.3733 32.4567C14.8582 31.49 13.988 30.5233 13.3487 30.2072C13.1001 30.0864 12.5051 29.9098 12.0167 29.8075C10.2142 29.445 9.86786 29.352 9.36171 29.129C9.07756 29.0081 8.67798 28.7943 8.4915 28.6549C8.16295 28.4132 7.00859 27.2234 5.91639 25.9778L5.43688 25.4387L5.96967 25.4944C6.2627 25.5223 7.2661 25.5967 8.18959 25.6432ZM32.3868 25.9871C31.2502 27.2699 30.3444 28.2273 30.0248 28.4969C29.2878 29.1011 28.5419 29.3799 26.8103 29.6867C25.9934 29.8354 25.3541 30.012 25.0344 30.17C24.324 30.514 23.4716 31.4435 22.9388 32.4474C22.699 32.9029 22.4948 33.2654 22.477 33.2654C22.4238 33.2654 22.5303 32.4381 22.6813 31.6852C22.8944 30.5605 24.0754 28.3295 24.9811 27.3256C26.0112 26.1823 27.201 25.8012 30.2557 25.6432C31.2591 25.5874 32.1381 25.5316 32.2092 25.513C32.2802 25.4944 32.4578 25.4758 32.5999 25.4665C32.8574 25.4572 32.8574 25.4572 32.3868 25.9871Z" fill="#F94819"/>
<path d="M53.1359 32.6414V10.8164H57.0765V32.6414H53.1359ZM55.0152 23.881V20.7589H67.2918V23.881H55.0152ZM55.0152 13.9385V10.8164H68.0193V13.9385H55.0152ZM80.6965 32.9445C79.1203 32.9445 77.6653 32.6717 76.3315 32.126C74.9978 31.5804 73.8358 30.8024 72.8456 29.792C71.8756 28.7816 71.1178 27.5893 70.5722 26.2151C70.0467 24.8207 69.784 23.295 69.784 21.6379C69.784 19.4352 70.2488 17.5053 71.1784 15.8482C72.108 14.1709 73.3912 12.8675 75.0281 11.9379C76.6852 10.9881 78.5646 10.5132 80.6662 10.5132C82.8083 10.5132 84.6978 10.9881 86.3347 11.9379C87.9917 12.8675 89.2851 14.1709 90.2147 15.8482C91.1442 17.5255 91.609 19.4655 91.609 21.6682C91.609 23.3253 91.3362 24.8409 90.7906 26.2151C90.2652 27.5893 89.5074 28.7816 88.5172 29.792C87.5472 30.8024 86.3953 31.5804 85.0615 32.126C83.7278 32.6717 82.2728 32.9445 80.6965 32.9445ZM80.6662 29.7314C82.0404 29.7314 83.2428 29.3878 84.2734 28.7007C85.3242 28.0136 86.1427 27.0639 86.7287 25.8514C87.3148 24.6187 87.6078 23.2041 87.6078 21.6076C87.6078 20.0314 87.3148 18.6572 86.7287 17.4851C86.1629 16.2928 85.3546 15.3733 84.3037 14.7267C83.2731 14.0598 82.0606 13.7264 80.6662 13.7264C79.2921 13.7264 78.0796 14.0598 77.0287 14.7267C75.9981 15.3733 75.1999 16.2827 74.634 17.4548C74.0682 18.6269 73.7853 20.0112 73.7853 21.6076C73.7853 23.2243 74.0682 24.6389 74.634 25.8514C75.2201 27.0639 76.0284 28.0136 77.059 28.7007C78.1099 29.3878 79.3123 29.7314 80.6662 29.7314ZM106.691 32.6414L100.295 22.8807L92.0202 10.8164H96.6277L102.63 20.0314L111.299 32.6414H106.691ZM100.871 20.0617L107.116 10.8164H111.299L102.326 23.3051L100.871 20.0617ZM101.902 23.4264L95.6577 32.6414H91.4745L100.417 20.1829L101.902 23.4264ZM113.998 32.6414V10.8164H117.938V32.6414H113.998ZM120.664 32.6414L128.696 10.8164H132.091L124.544 32.6414H120.664ZM137.123 32.6414L129.606 10.8164H133.183L141.185 32.6414H137.123ZM124.816 24.0629H136.759V27.2154H124.816V24.0629ZM143.925 32.6414V10.8164H147.866V32.6414H143.925Z" fill="white"/>
</svg>
