<svg width="112" height="30" viewBox="0 0 112 30" fill="none" xmlns="http://www.w3.org/2000/svg">
<path d="M10.0722 23.4332C7.67402 23.4332 5.687 22.9992 4.11109 22.1313C2.55802 21.2634 1.48457 20.0073 0.890745 18.3628C0.296923 16.6956 0.251244 14.6971 0.753709 12.3675C1.55309 8.69038 3.15184 5.82405 5.54997 3.76851C7.9481 1.71297 11.1913 0.685197 15.2795 0.685197C16.627 0.685197 17.8261 0.765135 18.8767 0.925011C19.9273 1.08489 20.9094 1.3247 21.823 1.64445L20.7952 6.37219C19.9045 6.00676 18.9567 5.75553 17.9517 5.61849C16.9696 5.48146 15.919 5.41294 14.7999 5.41294C12.4474 5.41294 10.586 5.98392 9.21568 7.12589C7.84532 8.24501 6.89749 9.99222 6.37218 12.3675C5.86972 14.6514 5.9725 16.2845 6.68051 17.2665C7.41137 18.2486 8.88451 18.7397 11.0999 18.7397C11.7623 18.7397 12.4474 18.694 13.1555 18.6026C13.8635 18.4885 14.4573 18.3514 14.9369 18.1915L15.8277 14.0119H11.0657L11.7851 10.5518H21.1721L18.8425 21.4804C17.9517 21.9829 16.7755 22.4397 15.3138 22.8508C13.8521 23.239 12.1049 23.4332 10.0722 23.4332ZM29.6841 23.4332C26.7607 23.4332 24.6594 22.7137 23.3804 21.2748C22.1243 19.8131 21.7817 17.7119 22.3527 14.9712C22.9236 12.2533 24.0656 10.1635 25.7786 8.7018C27.4915 7.24008 29.9924 6.50923 33.2813 6.50923C36.2732 6.50923 38.3973 7.24008 39.6535 8.7018C40.9096 10.1635 41.2522 12.2533 40.6812 14.9712C40.1102 17.7119 38.9683 19.8131 37.2553 21.2748C35.5424 22.7137 33.0186 23.4332 29.6841 23.4332ZM30.6091 19.1165C31.8881 19.1165 32.8702 18.7968 33.5554 18.1573C34.2405 17.5178 34.743 16.4558 35.0627 14.9712C35.3825 13.4866 35.3368 12.4246 34.9257 11.7851C34.5146 11.1456 33.6695 10.8259 32.3905 10.8259C31.1344 10.8259 30.1637 11.1456 29.4785 11.7851C28.7934 12.4246 28.2909 13.4866 27.9711 14.9712C27.6514 16.4558 27.6971 17.5178 28.1082 18.1573C28.5193 18.7968 29.3529 19.1165 30.6091 19.1165ZM50.1257 23.4332C47.2023 23.4332 45.1011 22.7137 43.8221 21.2748C42.5659 19.8131 42.2233 17.7119 42.7943 14.9712C43.3653 12.2533 44.5073 10.1635 46.2202 8.7018C47.9332 7.24008 50.4341 6.50923 53.7229 6.50923C56.7149 6.50923 58.8389 7.24008 60.0951 8.7018C61.3513 10.1635 61.6939 12.2533 61.1229 14.9712C60.5519 17.7119 59.4099 19.8131 57.697 21.2748C55.984 22.7137 53.4603 23.4332 50.1257 23.4332ZM51.0507 19.1165C52.3297 19.1165 53.3118 18.7968 53.997 18.1573C54.6822 17.5178 55.1846 16.4558 55.5044 14.9712C55.8241 13.4866 55.7785 12.4246 55.3674 11.7851C54.9562 11.1456 54.1112 10.8259 52.8322 10.8259C51.576 10.8259 50.6054 11.1456 49.9202 11.7851C49.235 12.4246 48.7325 13.4866 48.4128 14.9712C48.093 16.4558 48.1387 17.5178 48.5498 18.1573C48.9609 18.7968 49.7946 19.1165 51.0507 19.1165ZM67.8267 29.1202C67.4612 29.1202 66.9816 29.0973 66.3878 29.0516C65.794 29.0288 65.2116 28.9831 64.6406 28.9146C64.0924 28.8689 63.6699 28.8232 63.373 28.7776L64.2637 24.7007C64.6977 24.8378 65.2687 24.9406 65.9767 25.0091C66.6847 25.1004 67.2899 25.1461 67.7924 25.1461C69.7566 25.1461 71.1955 24.9634 72.109 24.598C73.0454 24.2325 73.605 23.5816 73.7877 22.6452L73.9248 22.0285C73.2853 22.394 72.543 22.6795 71.6979 22.885C70.8529 23.0906 69.9964 23.1934 69.1285 23.1934C67.6896 23.1934 66.4449 22.9421 65.3943 22.4397C64.3665 21.9144 63.6356 21.0921 63.2017 19.973C62.7906 18.831 62.7677 17.3579 63.1332 15.5536C63.727 12.6302 64.8461 10.3919 66.4906 8.83884C68.135 7.28576 70.2362 6.50923 72.7942 6.50923C73.9362 6.50923 74.8497 6.6691 75.5349 6.98885C76.2429 7.28576 76.8368 7.70829 77.3164 8.25643L77.8988 6.85181H82.6608L79.5432 21.6174C79.2235 23.1477 78.6297 24.4724 77.7618 25.5915C76.9167 26.7106 75.6834 27.5785 74.0618 28.1952C72.463 28.8118 70.3847 29.1202 67.8267 29.1202ZM71.5266 19.1851C72.1661 19.1851 72.7485 19.0937 73.2738 18.911C73.7991 18.7283 74.2902 18.4656 74.747 18.123L76.1173 11.7851C75.5692 10.9629 74.6556 10.5518 73.3766 10.5518C72.0976 10.5518 71.0927 10.9743 70.3618 11.8194C69.6538 12.6416 69.1171 13.8749 68.7516 15.5193C68.4547 16.9354 68.489 17.906 68.8544 18.4314C69.2427 18.9338 70.1334 19.1851 71.5266 19.1851ZM87.6158 23.4332C85.9713 23.4332 84.8065 23.0449 84.1214 22.2684C83.459 21.4918 83.3106 20.2471 83.676 18.5341L87.6158 1.77968e-05H93.1315L89.2945 17.986C89.2031 18.5113 89.2374 18.8767 89.3972 19.0823C89.58 19.265 89.8883 19.3563 90.3222 19.3563C90.9389 19.3563 91.4985 19.2764 92.0009 19.1165L91.213 22.8508C90.642 23.0563 90.0824 23.2048 89.5343 23.2961C89.009 23.3875 88.3695 23.4332 87.6158 23.4332ZM101.821 23.4332C100.108 23.4332 98.6006 23.1248 97.2987 22.5082C96.0197 21.8687 95.0948 20.9208 94.5238 19.6647C93.9528 18.4085 93.8614 16.844 94.2497 14.9712C94.7978 12.3904 95.8827 10.3348 97.5043 8.80458C99.1259 7.27434 101.467 6.50923 104.527 6.50923C106.172 6.50923 107.531 6.8404 108.604 7.50274C109.701 8.14224 110.466 9.01013 110.9 10.1064C111.334 11.2027 111.402 12.4474 111.105 13.8406L110.488 16.7527H98.9774C99.0003 17.8261 99.3771 18.5798 100.108 19.0138C100.839 19.4249 102.106 19.6304 103.911 19.6304C104.801 19.6304 105.726 19.5505 106.686 19.3906C107.645 19.2307 108.456 19.0252 109.118 18.7739L108.364 22.3711C107.519 22.7366 106.537 22.9992 105.418 23.1591C104.299 23.3418 103.1 23.4332 101.821 23.4332ZM99.6626 13.5666H106.377L106.514 12.8471C106.697 12.0478 106.594 11.4197 106.206 10.9629C105.818 10.4833 105.053 10.2435 103.911 10.2435C102.586 10.2435 101.604 10.5175 100.964 11.0657C100.348 11.591 99.9139 12.4246 99.6626 13.5666Z" fill="#CECFD1"/>
</svg>
