<svg width="144" height="30" viewBox="0 0 144 30" fill="none" xmlns="http://www.w3.org/2000/svg">
<path d="M7.84615e-06 23.0906L4.65923 1.02779H10.1749L6.40644 18.8425H16.8212L15.9304 23.0906H7.84615e-06ZM21.9314 4.28239L22.8221 0.137054H28.8174L27.9267 4.28239H21.9314ZM18.4027 23.0906L20.9721 10.9286H18.574L19.9101 6.85181H27.3443L23.9184 23.0906H18.4027ZM33.0516 29.1202C32.6862 29.1202 32.2066 29.0973 31.6128 29.0516C31.0189 29.0288 30.4365 28.9831 29.8655 28.9146C29.3174 28.8689 28.8949 28.8232 28.598 28.7776L29.4887 24.7007C29.9226 24.8378 30.4936 24.9406 31.2016 25.0091C31.9097 25.1004 32.5149 25.1461 33.0174 25.1461C34.9816 25.1461 36.4204 24.9634 37.334 24.598C38.2704 24.2325 38.83 23.5816 39.0127 22.6452L39.1497 22.0285C38.5102 22.394 37.768 22.6795 36.9229 22.885C36.0778 23.0906 35.2214 23.1934 34.3535 23.1934C32.9146 23.1934 31.6699 22.9421 30.6192 22.4397C29.5915 21.9144 28.8606 21.0921 28.4267 19.973C28.0156 18.831 27.9927 17.3579 28.3582 15.5536C28.952 12.6302 30.0711 10.3919 31.7155 8.83884C33.36 7.28576 35.4612 6.50923 38.0192 6.50923C39.1612 6.50923 40.0747 6.6691 40.7599 6.98885C41.4679 7.28576 42.0617 7.70829 42.5414 8.25643L43.1238 6.85181H47.8858L44.7682 21.6174C44.4485 23.1477 43.8546 24.4724 42.9867 25.5915C42.1417 26.7106 40.9084 27.5785 39.2868 28.1952C37.688 28.8118 35.6096 29.1202 33.0516 29.1202ZM36.7516 19.1851C37.3911 19.1851 37.9735 19.0937 38.4988 18.911C39.0241 18.7283 39.5152 18.4656 39.9719 18.123L41.3423 11.7851C40.7942 10.9629 39.8806 10.5518 38.6016 10.5518C37.3226 10.5518 36.3177 10.9743 35.5868 11.8194C34.8788 12.6416 34.3421 13.8749 33.9766 15.5193C33.6797 16.9354 33.714 17.906 34.0794 18.4314C34.4677 18.9338 35.3584 19.1851 36.7516 19.1851ZM47.9417 23.0906L52.8408 1.77968e-05H58.3564L56.6435 8.05088C57.3515 7.59409 58.1852 7.22866 59.1444 6.95459C60.1265 6.65768 61.1428 6.50923 62.1935 6.50923C64.2033 6.50923 65.6422 7.02311 66.5101 8.05088C67.4008 9.07865 67.6178 10.6546 67.161 12.7786L65.0027 23.0906H59.487L61.5768 13.1555C61.7823 12.2191 61.7481 11.5567 61.474 11.1684C61.1999 10.7802 60.5262 10.586 59.4527 10.586C58.8589 10.586 58.2194 10.7231 57.5342 10.9972C56.8719 11.2712 56.2895 11.6138 55.787 12.0249L53.4574 23.0906H47.9417ZM74.9284 23.4332C73.0784 23.4332 71.7538 22.9193 70.9544 21.8915C70.155 20.8637 69.938 19.4477 70.3035 17.6434L71.7081 11.0314H69.5155L70.4062 6.85181H72.5988L73.3183 3.46018L79.1423 1.98704L78.1145 6.85181H82.0543L80.9237 11.0314H77.2238L75.9219 17.2665C75.7621 18.0431 75.7849 18.5912 75.9905 18.911C76.2188 19.2079 76.7898 19.3563 77.7034 19.3563C78.4114 19.3563 79.1423 19.2421 79.896 19.0138L79.108 22.748C77.9432 23.2048 76.55 23.4332 74.9284 23.4332ZM92.942 23.4332C91.8457 23.4332 90.9207 23.2961 90.167 23.0221C89.4133 22.7251 88.7624 22.2912 88.2142 21.7202L87.6661 23.0906H82.8698L87.7689 1.77968e-05H93.2846L91.6744 7.60551C92.3596 7.24008 93.1018 6.96601 93.9012 6.7833C94.7234 6.60058 95.5457 6.50923 96.3679 6.50923C97.8524 6.50923 99.1086 6.81756 100.136 7.43422C101.164 8.02804 101.872 8.94161 102.26 10.1749C102.672 11.4083 102.683 12.9613 102.295 14.8342C101.678 17.7576 100.605 19.9273 99.0743 21.3434C97.5441 22.7366 95.5 23.4332 92.942 23.4332ZM92.2225 19.4249C93.4559 19.4249 94.4151 19.0594 95.1003 18.3286C95.8083 17.5749 96.3336 16.4215 96.6762 14.8684C96.9959 13.2697 96.9617 12.1505 96.5734 11.511C96.208 10.8715 95.3858 10.5518 94.1068 10.5518C92.8049 10.5518 91.7086 10.8944 90.8179 11.5796L89.4133 18.1915C89.7102 18.6026 90.0985 18.911 90.5781 19.1165C91.0806 19.3221 91.6287 19.4249 92.2225 19.4249ZM111.704 23.4332C108.781 23.4332 106.679 22.7137 105.4 21.2748C104.144 19.8131 103.802 17.7119 104.373 14.9712C104.944 12.2533 106.086 10.1635 107.799 8.7018C109.512 7.24008 112.012 6.50923 115.301 6.50923C118.293 6.50923 120.417 7.24008 121.673 8.7018C122.93 10.1635 123.272 12.2533 122.701 14.9712C122.13 17.7119 120.988 19.8131 119.275 21.2748C117.562 22.7137 115.039 23.4332 111.704 23.4332ZM112.629 19.1165C113.908 19.1165 114.89 18.7968 115.575 18.1573C116.261 17.5178 116.763 16.4558 117.083 14.9712C117.403 13.4866 117.357 12.4246 116.946 11.7851C116.535 11.1456 115.69 10.8259 114.411 10.8259C113.154 10.8259 112.184 11.1456 111.499 11.7851C110.813 12.4246 110.311 13.4866 109.991 14.9712C109.671 16.4558 109.717 17.5178 110.128 18.1573C110.539 18.7968 111.373 19.1165 112.629 19.1165ZM121.391 23.0906L129.373 14.8342L125.057 6.85181H131.052L133.21 10.9286L137.082 6.85181H143.077L135.403 14.8342L139.891 23.0906H133.861L131.532 18.8082L127.421 23.0906H121.391Z" fill="#CECFD1"/>
</svg>
