<svg width="100" height="29" viewBox="0 0 100 29" fill="none" xmlns="http://www.w3.org/2000/svg">
<path d="M0.860038 0.059988C0.694284 0.15914 0.516691 0.902773 0.433814 1.85091C0.416055 2.03681 0.368697 2.53877 0.327258 2.96636C0.2799 3.44352 0.250301 4.72009 0.250301 6.31271C0.250301 8.60558 0.26806 9.01458 0.386456 10.0928C0.575889 11.7412 0.765321 12.6584 1.17379 13.9349C1.47569 14.8769 1.52305 15.0752 1.52305 15.4842C1.52305 15.8746 1.49345 16.0109 1.34546 16.3456C1.11459 16.8475 0.830439 17.2627 0.350937 17.7895C0.108227 18.0559 -0.0160886 18.2418 0.00167076 18.2976C0.0194301 18.3472 0.137825 18.4463 0.262141 18.5145C0.386456 18.5765 0.658765 18.7934 0.871877 18.9917C1.54081 19.6175 2.04399 19.9088 4.51254 21.1172C6.38318 22.0344 8.5143 23.7695 9.31939 25.0399C9.48514 25.3001 9.71601 25.7897 9.84033 26.1243C10.2133 27.1716 10.3021 27.3327 10.6691 27.7232C11.0539 28.1198 11.7583 28.5783 12.2911 28.7642C12.7588 28.9316 13.0962 28.8758 13.7533 28.5288C14.6709 28.0454 15.2214 27.4877 15.47 26.7812C15.8311 25.7463 15.9495 25.4675 16.2218 25.0399C16.6185 24.4202 17.5301 23.4782 18.4358 22.7718C19.5488 21.8918 19.8447 21.7183 22.5974 20.3364C23.6393 19.8097 24.1721 19.4564 24.7878 18.8925C25.0009 18.6942 25.2613 18.4897 25.3679 18.4339C25.4685 18.3782 25.5573 18.2976 25.5573 18.2542C25.5573 18.2108 25.4212 18.0373 25.2554 17.87C24.8351 17.4362 24.403 16.8103 24.1899 16.3208C23.9057 15.6639 23.9294 15.2673 24.3378 14.0279C24.8174 12.5654 25.0305 11.481 25.214 9.5661C25.3146 8.48164 25.3146 4.02603 25.214 2.93537C24.9535 0.196321 24.8174 -0.218874 24.2787 0.0847759C24.1662 0.146746 23.5209 0.840803 22.852 1.62782C21.3069 3.43732 19.4422 5.39556 18.3352 6.35608C17.8616 6.76508 17.317 7.27323 17.1276 7.49013L16.7783 7.87434L15.9436 7.76899C14.2446 7.5521 11.3144 7.5521 9.59762 7.76899L8.76293 7.87434L8.41366 7.49013C8.22423 7.27323 7.67961 6.76508 7.20603 6.35608C6.01616 5.3212 4.54805 3.79055 2.8846 1.85091C1.30402 0.0166092 1.15011 -0.119722 0.860038 0.059988ZM2.23934 3.87731C3.86728 5.94709 4.67829 8.17799 4.69013 10.6196C4.69013 11.5057 4.55989 12.7699 4.47702 12.6212C4.45334 12.5716 4.2935 11.9581 4.12775 11.2641C3.94424 10.4956 3.43514 8.77289 2.83132 6.87043C1.8664 3.84013 1.7184 3.33817 1.78352 3.33817C1.79536 3.33817 2.00255 3.57985 2.23934 3.87731ZM23.7459 3.53647C23.7281 3.64802 23.2605 5.15388 22.7099 6.87663C22.0824 8.84106 21.6088 10.4461 21.4431 11.1711C21.2951 11.8156 21.1353 12.4291 21.0938 12.5344C21.0228 12.7203 21.0169 12.7018 20.934 12.0759C20.6084 9.54751 21.1767 7.06254 22.5738 4.906C22.9467 4.32968 23.6985 3.33817 23.7636 3.33817C23.7755 3.33817 23.7696 3.43113 23.7459 3.53647ZM5.4597 17.0954C8.05256 17.2317 8.81621 17.6717 9.79297 19.5804C10.0238 20.0389 10.2725 20.5781 10.3376 20.7888C10.4441 21.1234 10.5981 22.1149 10.5566 22.1645C10.5448 22.1707 10.4086 21.9352 10.2488 21.6378C9.90545 20.9933 9.32531 20.3488 8.89909 20.1381C8.73333 20.0575 8.33671 19.9398 8.01112 19.8716C6.80941 19.6299 6.57854 19.568 6.24111 19.4192C6.05168 19.3387 5.78529 19.1962 5.66097 19.1032C5.44194 18.9421 4.67237 18.1489 3.94424 17.3185L3.62457 16.9591L3.97976 16.9962C4.17511 17.0148 4.84404 17.0644 5.4597 17.0954ZM21.5911 17.3247C20.8333 18.1799 20.2295 18.8181 20.0164 18.9979C19.5251 19.4007 19.0278 19.5866 17.8735 19.7911C17.3288 19.8902 16.9026 20.008 16.6895 20.1133C16.2159 20.3426 15.6476 20.9623 15.2924 21.6316C15.1326 21.9352 14.9965 22.1769 14.9846 22.1769C14.9491 22.1769 15.0201 21.6254 15.1208 21.1234C15.2628 20.3736 16.0502 18.8863 16.654 18.217C17.3407 17.4548 18.1339 17.2007 20.1703 17.0954C20.8393 17.0582 21.4253 17.021 21.4727 17.0086C21.52 16.9962 21.6384 16.9838 21.7331 16.9777C21.9048 16.9715 21.9048 16.9715 21.5911 17.3247Z" fill="#F94819"/>
<path d="M35.4239 21.4275V6.8776H38.051V21.4275H35.4239ZM36.6768 15.5873V13.5059H44.8611V15.5873H36.6768ZM36.6768 8.95904V6.8776H45.3461V8.95904H36.6768ZM53.7976 21.6296C52.7468 21.6296 51.7768 21.4477 50.8876 21.084C49.9984 20.7202 49.2238 20.2016 48.5637 19.5279C47.917 18.8543 47.4118 18.0595 47.048 17.1434C46.6978 16.2138 46.5226 15.1967 46.5226 14.0919C46.5226 12.6235 46.8325 11.3369 47.4522 10.2322C48.0719 9.11398 48.9274 8.24502 50.0187 7.6253C51.1234 6.99211 52.3763 6.67552 53.7774 6.67552C55.2054 6.67552 56.4651 6.99211 57.5563 7.6253C58.661 8.24502 59.5233 9.11398 60.143 10.2322C60.7627 11.3504 61.0726 12.6437 61.0726 14.1121C61.0726 15.2169 60.8907 16.2273 60.5269 17.1434C60.1767 18.0595 59.6714 18.8543 59.0113 19.5279C58.3646 20.2016 57.5967 20.7202 56.7076 21.084C55.8184 21.4477 54.8484 21.6296 53.7976 21.6296ZM53.7774 19.4875C54.6935 19.4875 55.4951 19.2585 56.1822 18.8005C56.8827 18.3424 57.4283 17.7092 57.819 16.9009C58.2097 16.0791 58.4051 15.136 58.4051 14.0717C58.4051 13.0209 58.2097 12.1048 57.819 11.3234C57.4418 10.5286 56.9029 9.91557 56.2024 9.48446C55.5153 9.03988 54.707 8.81759 53.7774 8.81759C52.8613 8.81759 52.0529 9.03988 51.3524 9.48446C50.6653 9.91557 50.1332 10.5218 49.7559 11.3032C49.3787 12.0846 49.1901 13.0074 49.1901 14.0717C49.1901 15.1495 49.3787 16.0925 49.7559 16.9009C50.1466 17.7092 50.6855 18.3424 51.3726 18.8005C52.0732 19.2585 52.8747 19.4875 53.7774 19.4875ZM71.1274 21.4275L66.8635 14.9205L61.3466 6.8776H64.4183L68.4195 13.0209L74.1991 21.4275H71.1274ZM67.2474 13.0411L71.4103 6.8776H74.1991L68.2174 15.2034L67.2474 13.0411ZM67.9345 15.2842L63.7716 21.4275H60.9829L66.9443 13.1219L67.9345 15.2842ZM75.9982 21.4275V6.8776H78.6253V21.4275H75.9982ZM80.4421 21.4275L85.7973 6.8776H88.0606L83.0288 21.4275H80.4421ZM91.4152 21.4275L86.4036 6.8776H88.7881L94.1231 21.4275H91.4152ZM83.2107 15.7086H91.1727V17.8102H83.2107V15.7086ZM95.9499 21.4275V6.8776H98.577V21.4275H95.9499Z" fill="white"/>
</svg>
