<svg width="96" height="23" viewBox="0 0 96 23" fill="none" xmlns="http://www.w3.org/2000/svg">
<path d="M34.5072 2.72424V5.44847H32.0943C29.9927 5.47442 29.5257 5.55225 28.3323 6.17493C26.6977 7.03112 25.4005 8.35432 24.5962 9.96291C23.74 11.7272 23.6103 15.9303 24.3627 17.6427C25.2188 19.5885 26.3345 20.782 28.0988 21.6641C30.8489 22.9873 34.8185 23.143 38.5546 22.0533L39.9557 21.6382V10.8191V5.72205e-06H37.2314H34.5072V2.72424ZM34.3775 14.0103V18.1616L33.2099 18.2394C30.797 18.3951 29.1884 16.5011 29.396 13.7249C29.5776 11.1045 31.0046 9.65157 33.2099 9.7813L34.3775 9.85913V14.0103Z" fill="#CECFD1"/>
<path d="M60.7122 10.7934V21.6125L61.4386 21.8719C63.9034 22.8059 68.4697 23.0394 70.8307 22.3649C74.7225 21.2233 77.0576 18.0061 77.0576 13.7511C77.0576 10.7674 75.7084 8.06913 73.5031 6.6681C71.8685 5.63029 70.6232 5.31895 68.1843 5.31895H66.1606V2.64661V0.000213623H63.4364H60.7122V10.7934ZM69.7151 10.2745C70.9086 11.0009 71.4015 12.0906 71.4015 13.9068C71.4015 16.5791 69.741 18.3953 67.4579 18.2396L66.2903 18.1618L66.2125 14.1662C66.1606 11.1306 66.2385 10.1188 66.472 9.93718C67.0946 9.548 68.807 9.72962 69.7151 10.2745Z" fill="#CECFD1"/>
<path d="M8.84727 1.21937C8.71754 1.55666 7.96514 3.32092 7.18678 5.18897C6.40843 7.03107 4.98145 10.4299 4.02149 12.713C3.06152 14.9962 1.76426 18.0577 1.14158 19.5366C0.518901 21.0155 0 22.2608 0 22.3127C0 22.3906 3.21719 22.4424 7.13489 22.4424C12.6871 22.4424 14.2698 22.3646 14.2438 22.1052C14.2438 21.9495 13.9066 20.9117 13.5174 19.8479L12.7909 17.9021L10.5337 17.8242C8.9251 17.7723 8.30242 17.6686 8.30242 17.4091C8.30242 17.0978 11.7791 8.25049 11.9866 8.04293C12.0385 7.96509 13.3877 11.1563 14.9444 15.1259L17.7724 22.3127L21.1193 22.3906C24.2068 22.4424 24.4403 22.4165 24.3105 22.0014C24.2327 21.7419 22.5203 17.5648 20.4966 12.713C18.4729 7.86131 16.5011 3.16525 16.1378 2.25718L15.4892 0.648582H12.272C9.18456 0.648582 9.05483 0.674528 8.84727 1.21937Z" fill="#CECFD1"/>
<path d="M47.22 5.73359C43.5876 7.05679 41.7455 9.85886 41.7196 14.0101C41.7196 17.9278 43.6136 20.9634 46.8308 22.1568C48.8286 22.9092 51.8382 22.9092 53.8878 22.1568C60.5298 19.718 60.9708 9.31401 54.5624 6.17466C52.6944 5.26658 49.114 5.05902 47.22 5.73359ZM52.0717 10.3778C53.5246 11.3377 54.0954 14.1139 53.2392 16.0338C52.3311 18.0834 50.515 18.8099 48.8545 17.7721C47.7908 17.1494 47.22 15.7743 47.22 13.9582C47.22 10.6891 49.7107 8.847 52.0717 10.3778Z" fill="#CECFD1"/>
<path d="M84.1922 5.65613C80.7934 6.77177 78.614 9.96301 78.614 13.8548C78.614 18.0319 80.6637 20.9637 84.5035 22.2091C86.4235 22.8577 90.3412 22.8577 92.3649 22.235L93.7919 21.768L93.8697 19.6405C93.9216 18.473 93.8697 17.513 93.7919 17.513C93.714 17.513 93.2211 17.6946 92.6762 17.9282C91.379 18.473 88.0321 18.7065 86.8386 18.3173C85.9046 18.006 84.3219 16.4752 84.3219 15.8785C84.3219 15.645 85.5932 15.5931 89.6147 15.645L94.9075 15.7228L95.0632 14.6072C95.2448 13.3359 94.9075 11.0008 94.3627 9.67762C93.7919 8.32847 92.4427 6.92744 90.9639 6.17503C89.9001 5.63019 89.1996 5.47452 87.4353 5.39668C86.0862 5.34479 84.8149 5.44857 84.1922 5.65613ZM88.8104 9.98896C89.4591 10.5079 90.1077 11.8829 89.8482 12.1683C89.7445 12.2462 88.4731 12.324 86.9943 12.324C84.3738 12.324 84.3219 12.2981 84.3219 11.7273C84.3219 11.4159 84.6592 10.7673 85.0743 10.3003C85.723 9.59978 86.0343 9.47006 86.9943 9.47006C87.7467 9.47006 88.3694 9.65167 88.8104 9.98896Z" fill="#CECFD1"/>
</svg>
