<svg width="92" height="31" viewBox="0 0 92 31" fill="none" xmlns="http://www.w3.org/2000/svg">
<path d="M6.26938 23.2961C4.96754 23.2961 3.75706 23.2047 2.63793 23.022C1.5188 22.8393 0.639487 22.6109 -1.37895e-05 22.3368L0.89072 18.123C1.62158 18.4656 2.48947 18.7282 3.4944 18.9109C4.52217 19.0936 5.44717 19.185 6.26938 19.185C7.25147 19.185 7.97091 19.1393 8.4277 19.048C8.88448 18.9566 9.15856 18.7054 9.24991 18.2943C9.36411 17.8375 9.07862 17.4949 8.39344 17.2665C7.70826 17.0381 6.77185 16.7069 5.5842 16.273C4.191 15.7477 3.18607 15.1424 2.56941 14.4573C1.97559 13.7492 1.82713 12.7101 2.12404 11.3397C2.44379 9.74094 3.25459 8.51904 4.55643 7.67398C5.88111 6.80609 7.92523 6.37214 10.6888 6.37214C11.7166 6.37214 12.7215 6.45208 13.7036 6.61195C14.6857 6.77183 15.4622 6.95454 16.0332 7.1601L15.1767 11.3054C14.5829 11.0085 13.8863 10.7916 13.0869 10.6545C12.3104 10.5175 11.5909 10.449 10.9286 10.449C10.0835 10.449 9.35269 10.5061 8.73603 10.6203C8.14221 10.7116 7.81104 10.9514 7.74252 11.3397C7.65116 11.7736 7.90239 12.082 8.49622 12.2647C9.09004 12.4246 9.95793 12.6986 11.0999 13.0869C12.2875 13.4752 13.1897 13.8977 13.8064 14.3545C14.423 14.7884 14.8113 15.3137 14.9712 15.9304C15.1539 16.5471 15.1425 17.3236 14.9369 18.26C14.5715 19.8816 13.715 21.1263 12.3675 21.9942C11.0428 22.8621 9.0101 23.2961 6.26938 23.2961ZM22.8462 23.2961C20.9962 23.2961 19.6715 22.7822 18.8721 21.7544C18.0728 20.7267 17.8558 19.3106 18.2212 17.5063L19.6258 10.8943H17.4333L18.324 6.71473H20.5166L21.236 3.32309L27.06 1.84995L26.0323 6.71473H29.9721L28.8415 10.8943H25.1415L23.8397 17.1295C23.6798 17.906 23.7027 18.4541 23.9082 18.7739C24.1366 19.0708 24.7076 19.2193 25.6212 19.2193C26.3292 19.2193 27.06 19.1051 27.8137 18.8767L27.0258 22.6109C25.861 23.0677 24.4678 23.2961 22.8462 23.2961ZM29.1156 22.9535L32.5415 6.71473H37.7831L37.6461 8.22213C38.4454 7.78818 39.4047 7.39991 40.5238 7.05732C41.6429 6.69189 42.7392 6.4635 43.8127 6.37214L42.9562 10.5175C42.3395 10.586 41.6544 10.7002 40.9007 10.8601C40.147 10.9971 39.4161 11.1684 38.7081 11.374C38.0229 11.5795 37.4291 11.7965 36.9266 12.0249L34.6313 22.9535H29.1156ZM47.4672 4.14531L48.3579 -3.09367e-05H54.3532L53.4625 4.14531H47.4672ZM43.9385 22.9535L46.5079 10.7916H44.1098L45.4459 6.71473H52.8801L49.4542 22.9535H43.9385ZM51.4273 30.3534L56.4291 6.71473H61.2253V8.11935C62.0019 7.57121 62.8241 7.14868 63.692 6.85177C64.5827 6.53202 65.5762 6.37214 66.6725 6.37214C69.0707 6.37214 70.7608 7.09158 71.7429 8.53046C72.7249 9.94649 72.9419 12.0477 72.3938 14.8341C71.8228 17.7575 70.7379 19.9044 69.1392 21.2748C67.5404 22.6223 65.4278 23.2961 62.8013 23.2961C61.1112 23.2961 59.7294 22.9421 58.6559 22.2341L56.943 30.3534H51.4273ZM62.2531 19.2535C63.4179 19.2535 64.3772 18.8995 65.1309 18.1915C65.9074 17.4835 66.467 16.3301 66.8096 14.7313C67.1293 13.1783 67.0836 12.0706 66.6725 11.4082C66.2614 10.7459 65.4506 10.4147 64.2401 10.4147C63.6235 10.4147 63.0411 10.5175 62.4929 10.723C61.9676 10.9286 61.4423 11.2369 60.917 11.648L59.5124 18.2258C59.8321 18.5683 60.1976 18.831 60.6087 19.0137C61.0426 19.1736 61.5908 19.2535 62.2531 19.2535ZM82.0765 23.2961C80.3635 23.2961 78.8562 22.9878 77.5543 22.3711C76.2753 21.7316 75.3503 20.7838 74.7793 19.5276C74.2083 18.2714 74.117 16.7069 74.5053 14.8341C75.0534 12.2533 76.1383 10.1977 77.7599 8.66749C79.3815 7.13726 81.7225 6.37214 84.783 6.37214C86.4274 6.37214 87.7863 6.70331 88.8598 7.36565C89.9561 8.00515 90.7212 8.87305 91.1551 9.96933C91.5891 11.0656 91.6576 12.3104 91.3607 13.7036L90.744 16.6156H79.233C79.2558 17.689 79.6327 18.4427 80.3635 18.8767C81.0944 19.2878 82.362 19.4933 84.1663 19.4933C85.057 19.4933 85.982 19.4134 86.9413 19.2535C87.9005 19.0936 88.7113 18.8881 89.3737 18.6369L88.62 22.2341C87.7749 22.5995 86.7928 22.8621 85.6737 23.022C84.5546 23.2047 83.3555 23.2961 82.0765 23.2961ZM79.9182 13.4295H86.6329L86.77 12.7101C86.9527 11.9107 86.8499 11.2826 86.4616 10.8258C86.0734 10.3462 85.3083 10.1064 84.1663 10.1064C82.8416 10.1064 81.8595 10.3804 81.22 10.9286C80.6034 11.4539 80.1694 12.2875 79.9182 13.4295Z" fill="#CECFD1"/>
</svg>
