<svg width="90" height="23" viewBox="0 0 90 23" fill="none" xmlns="http://www.w3.org/2000/svg">
<path d="M1.93475e-06 22.0628L0.582405 19.2536L14.0804 4.38517H4.24812L5.17311 1.54433e-05H22.2341L21.5832 3.08333L8.22216 17.8147H18.6712L17.7804 22.0628H1.93475e-06ZM27.8132 22.4054C24.8898 22.4054 22.7886 21.686 21.5096 20.2471C20.2534 18.7854 19.9108 16.6841 20.4818 13.9434C21.0528 11.2255 22.1947 9.13575 23.9077 7.67403C25.6206 6.21231 28.1215 5.48145 31.4104 5.48145C34.4024 5.48145 36.5264 6.21231 37.7826 7.67403C39.0387 9.13575 39.3813 11.2255 38.8103 13.9434C38.2394 16.6841 37.0974 18.7854 35.3845 20.2471C33.6715 21.686 31.1478 22.4054 27.8132 22.4054ZM28.7382 18.0888C30.0172 18.0888 30.9993 17.769 31.6845 17.1295C32.3697 16.49 32.8721 15.428 33.1919 13.9434C33.5116 12.4589 33.4659 11.3968 33.0548 10.7573C32.6437 10.1178 31.7987 9.79809 30.5197 9.79809C29.2635 9.79809 28.2928 10.1178 27.6077 10.7573C26.9225 11.3968 26.42 12.4589 26.1003 13.9434C25.7805 15.428 25.8262 16.49 26.2373 17.1295C26.6484 17.769 27.482 18.0888 28.7382 18.0888ZM48.2549 22.4054C45.3314 22.4054 43.2302 21.686 41.9512 20.2471C40.695 18.7854 40.3524 16.6841 40.9234 13.9434C41.4944 11.2255 42.6364 9.13575 44.3493 7.67403C46.0623 6.21231 48.5632 5.48145 51.852 5.48145C54.844 5.48145 56.9681 6.21231 58.2242 7.67403C59.4804 9.13575 59.823 11.2255 59.252 13.9434C58.681 16.6841 57.539 18.7854 55.8261 20.2471C54.1131 21.686 51.5894 22.4054 48.2549 22.4054ZM49.1798 18.0888C50.4588 18.0888 51.4409 17.769 52.1261 17.1295C52.8113 16.49 53.3138 15.428 53.6335 13.9434C53.9533 12.4589 53.9076 11.3968 53.4965 10.7573C53.0854 10.1178 52.2403 9.79809 50.9613 9.79809C49.7052 9.79809 48.7345 10.1178 48.0493 10.7573C47.3641 11.3968 46.8617 12.4589 46.5419 13.9434C46.2222 15.428 46.2678 16.49 46.6789 17.1295C47.09 17.769 47.9237 18.0888 49.1798 18.0888ZM60.3716 22.0628L63.7975 5.82404H68.9021L68.765 7.26292C69.6329 6.73762 70.5465 6.31509 71.5057 5.99534C72.4878 5.65275 73.5042 5.48145 74.5548 5.48145C75.6511 5.48145 76.4733 5.65275 77.0214 5.99534C77.5696 6.31509 77.9578 6.77188 78.1862 7.3657C79.0541 6.81756 79.9905 6.37219 80.9955 6.0296C82.0232 5.66417 83.1766 5.48145 84.4556 5.48145C86.3513 5.48145 87.6303 6.01818 88.2926 7.09163C88.955 8.14224 89.092 9.59253 88.7037 11.4425L86.4769 22.0628H81.0297L83.1195 12.0934C83.3022 11.2027 83.2451 10.5632 82.9482 10.1749C82.6742 9.76383 82.1146 9.55827 81.2695 9.55827C80.7442 9.55827 80.2075 9.67247 79.6594 9.90086C79.1112 10.1064 78.6202 10.4033 78.1862 10.7916C78.1862 11.0428 78.1634 11.2826 78.1177 11.511C78.0949 11.7394 78.0492 12.0135 77.9807 12.3333L75.9251 22.0628H70.7863L72.9104 12.0249C73.0931 11.2027 73.0816 10.586 72.8761 10.1749C72.6705 9.76383 72.1681 9.55827 71.3687 9.55827C70.7977 9.55827 70.2267 9.69531 69.6557 9.96938C69.0848 10.2206 68.5595 10.5746 68.0798 11.0314L65.7502 22.0628H60.3716Z" fill="url(#paint0_linear_714_59)"/>
<defs>
<linearGradient id="paint0_linear_714_59" x1="7.48544" y1="21.0628" x2="90.4929" y2="16.2266" gradientUnits="userSpaceOnUse">
<stop stop-color="#292929"/>
<stop offset="1" stop-color="white"/>
</linearGradient>
</defs>
</svg>
